<?xml version="1.0" encoding="utf-8"?>
<!-- Generator: Adobe Illustrator 21.0.2, SVG Export Plug-In . SVG Version: 6.00 Build 0)  -->
<svg version="1.1" id="Layer_1" xmlns="http://www.w3.org/2000/svg" xmlns:xlink="http://www.w3.org/1999/xlink" x="0px" y="0px"
	 viewBox="0 0 2896 1000" style="enable-background:new 0 0 2896 1000;" xml:space="preserve">
<style type="text/css">
	.st0{fill:#00B9FE;}
</style>
<g>
	<path class="st0" d="M2514.5,443.4c7.8-9.3,15.4-17.2,24.1-23.9c28.6-22.3,61.3-27.6,96.4-23.7c54,6,94,44.6,104.6,105.1
		c2.9,16.8,4.3,33.7,4.3,50.7c-0.1,68-0.1,136-0.1,204c0,1.3,0,2.7,0,4c-0.1,9.3-0.1,9.4-9.1,9.4c-15.7,0-31.3,0-47,0
		c-31,0-62,0-93,0c-12.4,0-11,0.9-11-11.5c0-59,0-118,0-177c0-9-0.1-18-1.9-26.9c-3.2-16.5-11-25.2-25.7-28
		c-13.7-2.6-27.9,4-35.7,16.8c-4.2,7-6.1,14.7-6.7,22.8c-0.4,4.6-0.3,9.3-0.4,14c0,58.3,0,116.7,0,175c0,2,0,4,0,6
		c-0.1,8.7-0.1,8.8-8.8,8.8c-47.7,0-95.3,0-143,0c-8.2,0-8.3-0.1-8.4-8.1c-0.1-10.3,0-20.7,0-31c0-156,0-312,0-468c0-2,0-4,0-6
		c0-12.1-0.4-10.9,10.7-10.9c46.3,0,92.7,0,139,0c1,0,2,0,3,0c7.2,0.2,7.2,0.2,7.5,7.1c0.1,2,0,4,0,6c0,57.7,0,115.3,0,173
		C2513.4,434.7,2512.7,438.3,2514.5,443.4z"/>
	<path class="st0" d="M985.5,443c3.6-0.5,4.3-3,5.8-4.6c24.4-27.1,54.8-41.7,91.2-43.5c13.7-0.7,27.4-0.2,40.8,2.8
		c43.8,9.9,72,37.1,86.6,78.9c7.8,22.2,10.3,45.4,10.4,68.8c0.1,71.3,0,142.6,0,213.9c0,2,0,4-0.1,6c-0.1,2.4-1.4,3.6-3.8,3.6
		c-2,0-4,0.1-6,0.1c-46.7,0-93.3,0-140,0c-1.7,0-3.3-0.1-5,0c-3.7,0.2-5.6-1.3-5.4-5.2c0.1-2.3,0-4.7,0-7c0-59.6,0-119.3,0-178.9
		c0-9,0-18-2.2-26.8c-3.6-15.1-11.4-23-25.8-25.6c-13.7-2.4-26.7,3.3-34.3,15.4c-5.6,9-7.7,19.1-7.9,29.5c-0.2,13-0.1,26-0.1,39
		c0,48.3,0,96.6,0,144.9c0,2,0,4,0,6c-0.1,8.5-0.1,8.6-8.9,8.6c-47,0-94,0-140.9,0c-11,0-10.3,0.8-10.3-10.2
		c0-100.6,0-201.3,0-301.9c0-14.7,0-29.3,0-44c0-8.2,0.1-8.3,8.1-8.3c46.7,0,93.3,0,140,0c7.7,0,7.8,0.2,7.9,7.6
		C985.5,422.4,985.5,432.6,985.5,443z"/>
	<path class="st0" d="M355.4,278.5c64,0,128,0,191.9,0c12.2,0,11.1-1.2,11.2,11.4c0,38.7,0,77.3,0,116c0,2.3-0.1,4.7-0.1,7
		c0.1,3.4-1.7,4.8-4.9,4.7c-2.3,0-4.7,0-7,0c-31.7,0-63.3,0-95,0c-1.7,0-3.3,0-5,0c-8.5,0.2-8.6,0.2-8.6,9.1c0,70,0,139.9,0,209.9
		c0,40,0,80,0,120c0,2.3-0.1,4.7,0,7c0.2,3.8-1.3,5.6-5.2,5.3c-2-0.1-4,0-6,0c-47.3,0-94.6,0-141.9,0c-1.3,0-2.7,0-4,0
		c-7.2-0.2-7.3-0.2-7.5-7c-0.1-2.3,0-4.7,0-7c0-108,0-215.9,0-323.9c0-2.7-0.1-5.3,0-8c0.2-3.8-1.5-5.5-5.3-5.4c-2.3,0.1-4.7,0-7,0
		c-32.3,0-64.6,0-97,0c-2.7,0-5.3,0-8-0.1c-2.3-0.1-3.7-1.4-3.8-3.7c-0.1-2.3-0.1-4.7-0.1-7c0-39.3,0-78.6,0-118c0-1.7,0.1-3.3,0-5
		c-0.2-3.8,1.4-5.6,5.3-5.3c2.3,0.1,4.7,0,7,0C228.1,278.5,291.7,278.5,355.4,278.5z"/>
	<path class="st0" d="M2303.7,438.8c-10.2,12.3-20.6,24.8-31.1,37.3c-12.8,15.3-25.9,30.5-38.5,46c-3.5,4.3-6,4.5-10.6,1.7
		c-18.2-10.9-37.6-18.3-59-20c-7.1-0.6-14,0.3-20.8,1.7c-4.2,0.9-8.2,2.8-10.3,7.2c-2.8,5.7-1.6,11,3.9,14.9c3.9,2.7,8.4,4,12.9,5.1
		c12,2.9,24,5.4,36,8.2c27.3,6.3,52.8,16.5,74,35.3c21.6,19.1,32.6,43,33.7,72c1.3,34.7-8.4,65.1-33.4,89.9
		c-20.3,20-45,32.2-72.4,38.1c-77.2,16.5-149.4,2.6-216.6-38.3c-1.4-0.9-2.8-1.8-4.1-2.8c-5.3-4-5.5-4.1-1.2-9.1
		c23.5-27.3,47-54.5,70.6-81.7c1.1-1.2,2.4-2.2,3.9-3.6c14,12,29.3,21.2,46.6,27c13.7,4.6,27.6,7.7,42.1,5.7
		c2.9-0.4,5.9-1.2,8.6-2.4c8.8-4.1,10.2-13.8,3-20.4c-4-3.7-9.1-5.6-14.2-7.1c-12.4-3.6-25-7.1-37.5-10.3
		c-23.1-5.9-45.2-14-64.1-29.1c-31.7-25.3-43.5-58.6-39-98.3c4.2-37,23.9-64.3,54.1-84.7c27.2-18.3,57.8-27.6,90.1-29.6
		c59.9-3.8,115.5,11,166.9,41.8C2299.7,434.4,2302.3,435.4,2303.7,438.8z"/>
	<path class="st0" d="M1532.4,657.6c1.8,2.3,1.1,5.1,1.1,7.6c0.1,31,0.1,62,0,93c0,8.3-0.1,8.4-8.2,11c-18.2,5.9-37.1,8-56,9.1
		c-27.7,1.6-55.3,0.2-82.2-7.4c-44.8-12.7-70.1-42.4-77.7-88c-2.1-12.6-2.5-25.2-2.5-37.8c-0.1-37.7,0-75.3,0-113c0-2.3-0.2-4.7,0-7
		c0.3-4.8-1.9-6.3-6.6-6.3c-12.3,0.2-24.7,0.1-37,0c-7.6-0.1-7.7-0.2-7.8-7.7c-0.1-33-0.1-66,0-99c0-7.4,0.2-7.5,7.9-7.5
		c11-0.1,22,0,33,0c9.5,0,9.5-0.1,9.6-10c0-21,0-42,0-63c0-8.7,0.1-8.8,8.7-8.8c46,0,92,0,138,0c8.7,0,8.8,0.1,8.8,8.7
		c0,21.7,0,43.3,0,65c0,8,0.1,8.1,8.4,8.1c20.7,0.1,41.3,0,62,0c8.1,0,8.3,0.1,8.3,8.2c0.1,32.7,0.1,65.3,0,98c0,8-0.2,8.1-8.5,8.1
		c-20.7,0.1-41.3,0-62,0c-8.1,0-8.2,0.1-8.2,8.3c0,30,0,60,0,90c0,5.3,0.6,10.6,1.6,15.9c2.8,14.5,11.8,22.5,25.7,25.9
		c12.7,3.2,25.1,1.5,37.6-0.7C1528.4,657.9,1530.2,656.8,1532.4,657.6z"/>
	<path class="st0" d="M593.8,586.5c0-56.6,0-113.2,0-169.9c0-2.3,0.1-4.7,0-7c-0.3-4,1.8-5.3,5.5-5.1c1.7,0.1,3.3,0,5,0
		c46.3,0,92.6,0,138.9,0c2,0,4,0.1,6,0c3.3-0.2,5,1.2,4.8,4.6c-0.1,2.3,0,4.7,0,7c0,113.6,0,227.1,0,340.7c0,13.8,1.5,12-12.4,12.1
		c-45.3,0.1-90.6,0-135.9,0c-2.3,0-4.7-0.1-7,0c-3.2,0.1-5-1.2-4.9-4.7c0.1-2.7,0-5.3,0-8C593.8,699.7,593.8,643.1,593.8,586.5z"/>
	<path class="st0" d="M591.3,298.8c-1.3-40.7,34.7-81.4,83.8-81.5c43.6-0.1,81.8,38.3,81.9,81.8c0.1,44.7-37.5,82.1-82.7,81.4
		C624.9,379.7,589.9,341.5,591.3,298.8z"/>
	<path class="st0" d="M1929.3,758.9c0-61.3,0.2-122.6-0.1-184c-0.1-23-2.4-45.9-7.7-68.4c-13.9-59.1-49.7-96.9-109.4-110.1
		c-45.4-10.1-90.6-8-135.3,5.4c-34,10.2-64.7,26.4-91.1,50.2c-5.3,4.8-5.3,5-0.3,10c9.6,9.7,19.4,19.3,29.1,28.9
		c13.5,13.4,27.1,26.7,40.3,40.2c3.6,3.7,6.6,5.2,10.7,1.1c1.9-1.8,4.2-3.2,6.5-4.7c16.3-10.7,33.4-19.4,53.1-21.9
		c11.7-1.5,23.3-1.1,34.4,3.3c9.2,3.6,15.8,9.8,18.1,19.8c1.9,8.6,0.8,9.9-7.8,10c-28.7,0.5-57.3,2.6-85.4,8.2
		c-27.7,5.5-54,14.6-76.8,32c-20,15.2-34.7,34-39,59.5c-2,11.9-2.3,23.8-1.4,35.8c3.1,40.7,22.9,70.5,58.9,88.8
		c30.3,15.5,62.7,19.3,96.2,12.4c17.1-3.6,33.4-8.9,47.2-20.4c4.8-4,8.6-9,14.5-12.8c0,7,0.2,14-0.1,21c-0.1,4.4,1.8,6,5.9,5.7
		c1.7-0.1,3.3,0,5,0c41.3,0,82.6,0,124,0c1.7,0,3.3-0.1,5,0c3.6,0.2,5.8-1,5.5-5.1C1929.2,762.3,1929.3,760.6,1929.3,758.9z
		 M1782.7,657.1c-12.6,23.7-44.3,32.5-67.4,18.7c-18.3-10.9-18-35.8,0.6-46.7c7.9-4.6,16.7-6.5,25.6-8.1c9.2-1.7,18.5-2.6,27.8-2.6
		c5,0,10,0,15,0c3.3,0,4.8,1.4,4.8,4.8C1789.3,634.9,1788.3,646.4,1782.7,657.1z"/>
</g>
</svg>
